<?xml version="1.0" encoding="utf-8" standalone="no"?>
<!DOCTYPE svg PUBLIC "-//W3C//DTD SVG 1.1//EN"
  "http://www.w3.org/Graphics/SVG/1.1/DTD/svg11.dtd">
<svg xmlns:xlink="http://www.w3.org/1999/xlink" width="1306.668125pt" height="652.742148pt" viewBox="0 0 1306.668125 652.742148" xmlns="http://www.w3.org/2000/svg" version="1.1">
 <metadata>
  <rdf:RDF xmlns:dc="http://purl.org/dc/elements/1.1/" xmlns:cc="http://creativecommons.org/ns#" xmlns:rdf="http://www.w3.org/1999/02/22-rdf-syntax-ns#">
   <cc:Work>
    <dc:type rdf:resource="http://purl.org/dc/dcmitype/StillImage"/>
    <dc:date>2026-05-26T10:17:27.141236</dc:date>
    <dc:format>image/svg+xml</dc:format>
    <dc:creator>
     <cc:Agent>
      <dc:title>Matplotlib v3.7.5, https://matplotlib.org/</dc:title>
     </cc:Agent>
    </dc:creator>
   </cc:Work>
  </rdf:RDF>
 </metadata>
 <defs>
  <style type="text/css">*{stroke-linejoin: round; stroke-linecap: butt}</style>
 </defs>
 <g id="figure_1">
  <g id="patch_1">
   <path d="M 0 652.742148 
L 1306.668125 652.742148 
L 1306.668125 0 
L 0 0 
z
" style="fill: #ffffff"/>
  </g>
  <g id="axes_1">
   <g id="patch_2">
    <path d="M 60.708125 524.236875 
L 1299.468125 524.236875 
L 1299.468125 40.396875 
L 60.708125 40.396875 
z
" style="fill: #ffffff"/>
   </g>
   <g id="line2d_1">
    <path d="M 872.263117 524.236875 
L 872.263117 40.396875 
" clip-path="url(#pc9766ef8ae)" style="fill: none; stroke-dasharray: 3.7,1.6; stroke-dashoffset: 0; stroke: #808080; stroke-opacity: 0.55"/>
   </g>
   <g id="line2d_2">
    <path d="M 1064.438109 524.236875 
L 1064.438109 40.396875 
" clip-path="url(#pc9766ef8ae)" style="fill: none; stroke-dasharray: 3.7,1.6; stroke-dashoffset: 0; stroke: #808080; stroke-opacity: 0.55"/>
   </g>
   <g id="matplotlib.axis_1">
    <g id="xtick_1">
     <g id="line2d_3"/>
     <g id="text_1">
      <text style="font: 15px 'DejaVu Sans'" transform="translate(121.932678 543.634531)">CLIP-DR</text>
      <text style="font: 15px 'DejaVu Sans'" transform="translate(112.795568 559.861367)">ResNet-50</text>
     </g>
    </g>
    <g id="xtick_2">
     <g id="line2d_4"/>
     <g id="text_2">
      <text style="font: 15px 'DejaVu Sans'" transform="translate(218.020174 543.634531)">CLIP-DR</text>
      <text style="font: 15px 'DejaVu Sans'" transform="translate(204.111189 559.861367)">ResNet-101</text>
     </g>
    </g>
    <g id="xtick_3">
     <g id="line2d_5"/>
     <g id="text_3">
      <text style="font: 15px 'DejaVu Sans'" transform="translate(314.10767 543.634531)">CLIP-DR</text>
      <text style="font: 15px 'DejaVu Sans'" transform="translate(313.190092 559.861367)">ViT-B/16</text>
     </g>
    </g>
    <g id="xtick_4">
     <g id="line2d_6"/>
     <g id="text_4">
      <text style="font: 15px 'DejaVu Sans'" transform="translate(410.195166 543.634531)">CLIP-DR</text>
      <text style="font: 15px 'DejaVu Sans'" transform="translate(409.277588 559.861367)">ViT-B/32</text>
     </g>
    </g>
    <g id="xtick_5">
     <g id="line2d_7"/>
     <g id="text_5">
      <text style="font: 15px 'DejaVu Sans'" transform="translate(503.958834 543.634531)">MedCLIP</text>
      <text style="font: 15px 'DejaVu Sans'" transform="translate(505.620553 559.861367)">DR-B/32</text>
     </g>
    </g>
    <g id="xtick_6">
     <g id="line2d_8"/>
     <g id="text_6">
      <text style="font: 15px 'DejaVu Sans'" transform="translate(588.227971 543.634531)">BioMedCLIP</text>
      <text style="font: 15px 'DejaVu Sans'" transform="translate(601.708049 559.861367)">DR-B/32</text>
     </g>
    </g>
    <g id="xtick_7">
     <g id="line2d_9"/>
     <g id="text_7">
      <text style="font: 15px 'DejaVu Sans'" transform="translate(712.695936 543.634531)">PLIP</text>
      <text style="font: 15px 'DejaVu Sans'" transform="translate(697.795545 559.861367)">DR-B/32</text>
     </g>
    </g>
    <g id="xtick_8">
     <g id="line2d_10"/>
     <g id="text_8">
      <text style="font: 15px 'DejaVu Sans'" transform="translate(793.2889 543.634531)">QuiltNet</text>
      <text style="font: 15px 'DejaVu Sans'" transform="translate(793.883041 559.861367)">DR-B/32</text>
     </g>
    </g>
    <g id="xtick_9">
     <g id="line2d_11"/>
     <g id="text_9">
      <text style="font: 15px 'DejaVu Sans'" transform="translate(904.870928 543.634531)">PLIP</text>
      <text style="font: 15px 'DejaVu Sans'" transform="translate(901.146709 559.861367)">Histo</text>
     </g>
    </g>
    <g id="xtick_10">
     <g id="line2d_12"/>
     <g id="text_10">
      <text style="font: 15px 'DejaVu Sans'" transform="translate(985.463893 543.634531)">QuiltNet</text>
      <text style="font: 15px 'DejaVu Sans'" transform="translate(997.234205 559.861367)">Histo</text>
     </g>
    </g>
    <g id="xtick_11">
     <g id="line2d_13"/>
     <g id="text_11">
      <text style="font: 15px 'DejaVu Sans'" transform="translate(1080.483811 543.634531)">MedCLIP</text>
      <text style="font: 15px 'DejaVu Sans'" transform="translate(1092.895139 559.861367)">X-ray</text>
     </g>
    </g>
    <g id="xtick_12">
     <g id="line2d_14"/>
     <g id="text_12">
      <text style="font: 15px 'DejaVu Sans'" transform="translate(1164.752947 543.634531)">BioMedCLIP</text>
      <text style="font: 15px 'DejaVu Sans'" transform="translate(1188.982635 559.861367)">X-ray</text>
     </g>
    </g>
    <g id="text_13">
     <text style="font: 700 18px 'DejaVu Sans'; text-anchor: middle" x="680.088125" y="641.658086" transform="rotate(-0 680.088125 641.658086)">Methods grouped by modality</text>
    </g>
   </g>
   <g id="matplotlib.axis_2">
    <g id="ytick_1">
     <g id="line2d_15">
      <path d="M 60.708125 524.236875 
L 1299.468125 524.236875 
" clip-path="url(#pc9766ef8ae)" style="fill: none; stroke-dasharray: 2.96,1.28; stroke-dashoffset: 0; stroke: #b0b0b0; stroke-opacity: 0.28; stroke-width: 0.8"/>
     </g>
     <g id="line2d_16">
      <defs>
       <path id="m1dd36da407" d="M 0 0 
L -3.5 0 
" style="stroke: #000000; stroke-width: 0.8"/>
      </defs>
      <g>
       <use xlink:href="#m1dd36da407" x="60.708125" y="524.236875" style="stroke: #000000; stroke-width: 0.8"/>
      </g>
     </g>
     <g id="text_14">
      <text style="font: 15px 'DejaVu Sans'; text-anchor: end" x="53.708125" y="529.935703" transform="rotate(-0 53.708125 529.935703)">0</text>
     </g>
    </g>
    <g id="ytick_2">
     <g id="line2d_17">
      <path d="M 60.708125 442.260258 
L 1299.468125 442.260258 
" clip-path="url(#pc9766ef8ae)" style="fill: none; stroke-dasharray: 2.96,1.28; stroke-dashoffset: 0; stroke: #b0b0b0; stroke-opacity: 0.28; stroke-width: 0.8"/>
     </g>
     <g id="line2d_18">
      <g>
       <use xlink:href="#m1dd36da407" x="60.708125" y="442.260258" style="stroke: #000000; stroke-width: 0.8"/>
      </g>
     </g>
     <g id="text_15">
      <text style="font: 15px 'DejaVu Sans'; text-anchor: end" x="53.708125" y="447.959086" transform="rotate(-0 53.708125 447.959086)">10</text>
     </g>
    </g>
    <g id="ytick_3">
     <g id="line2d_19">
      <path d="M 60.708125 360.283641 
L 1299.468125 360.283641 
" clip-path="url(#pc9766ef8ae)" style="fill: none; stroke-dasharray: 2.96,1.28; stroke-dashoffset: 0; stroke: #b0b0b0; stroke-opacity: 0.28; stroke-width: 0.8"/>
     </g>
     <g id="line2d_20">
      <g>
       <use xlink:href="#m1dd36da407" x="60.708125" y="360.283641" style="stroke: #000000; stroke-width: 0.8"/>
      </g>
     </g>
     <g id="text_16">
      <text style="font: 15px 'DejaVu Sans'; text-anchor: end" x="53.708125" y="365.982469" transform="rotate(-0 53.708125 365.982469)">20</text>
     </g>
    </g>
    <g id="ytick_4">
     <g id="line2d_21">
      <path d="M 60.708125 278.307024 
L 1299.468125 278.307024 
" clip-path="url(#pc9766ef8ae)" style="fill: none; stroke-dasharray: 2.96,1.28; stroke-dashoffset: 0; stroke: #b0b0b0; stroke-opacity: 0.28; stroke-width: 0.8"/>
     </g>
     <g id="line2d_22">
      <g>
       <use xlink:href="#m1dd36da407" x="60.708125" y="278.307024" style="stroke: #000000; stroke-width: 0.8"/>
      </g>
     </g>
     <g id="text_17">
      <text style="font: 15px 'DejaVu Sans'; text-anchor: end" x="53.708125" y="284.005852" transform="rotate(-0 53.708125 284.005852)">30</text>
     </g>
    </g>
    <g id="ytick_5">
     <g id="line2d_23">
      <path d="M 60.708125 196.330407 
L 1299.468125 196.330407 
" clip-path="url(#pc9766ef8ae)" style="fill: none; stroke-dasharray: 2.96,1.28; stroke-dashoffset: 0; stroke: #b0b0b0; stroke-opacity: 0.28; stroke-width: 0.8"/>
     </g>
     <g id="line2d_24">
      <g>
       <use xlink:href="#m1dd36da407" x="60.708125" y="196.330407" style="stroke: #000000; stroke-width: 0.8"/>
      </g>
     </g>
     <g id="text_18">
      <text style="font: 15px 'DejaVu Sans'; text-anchor: end" x="53.708125" y="202.029235" transform="rotate(-0 53.708125 202.029235)">40</text>
     </g>
    </g>
    <g id="ytick_6">
     <g id="line2d_25">
      <path d="M 60.708125 114.353789 
L 1299.468125 114.353789 
" clip-path="url(#pc9766ef8ae)" style="fill: none; stroke-dasharray: 2.96,1.28; stroke-dashoffset: 0; stroke: #b0b0b0; stroke-opacity: 0.28; stroke-width: 0.8"/>
     </g>
     <g id="line2d_26">
      <g>
       <use xlink:href="#m1dd36da407" x="60.708125" y="114.353789" style="stroke: #000000; stroke-width: 0.8"/>
      </g>
     </g>
     <g id="text_19">
      <text style="font: 15px 'DejaVu Sans'; text-anchor: end" x="53.708125" y="120.052618" transform="rotate(-0 53.708125 120.052618)">50</text>
     </g>
    </g>
    <g id="text_20">
     <text style="font: 700 18px 'DejaVu Sans'; text-anchor: middle" x="20.877188" y="282.316875" transform="rotate(-90 20.877188 282.316875)">Classwise‑ECE ↓ (lower is better)</text>
    </g>
   </g>
   <g id="patch_3">
    <path d="M 60.708125 524.236875 
L 60.708125 40.396875 
" style="fill: none; stroke: #000000; stroke-width: 1.1; stroke-linejoin: miter; stroke-linecap: square"/>
   </g>
   <g id="patch_4">
    <path d="M 1299.468125 524.236875 
L 1299.468125 40.396875 
" style="fill: none; stroke: #000000; stroke-width: 1.1; stroke-linejoin: miter; stroke-linecap: square"/>
   </g>
   <g id="patch_5">
    <path d="M 60.708125 524.236875 
L 1299.468125 524.236875 
" style="fill: none; stroke: #000000; stroke-width: 1.1; stroke-linejoin: miter; stroke-linecap: square"/>
   </g>
   <g id="patch_6">
    <path d="M 60.708125 40.396875 
L 1299.468125 40.396875 
" style="fill: none; stroke: #000000; stroke-width: 1.1; stroke-linejoin: miter; stroke-linecap: square"/>
   </g>
   <g id="patch_7">
    <path d="M 117.015398 524.236875 
L 151.606896 524.236875 
L 151.606896 271.052093 
L 117.015398 271.052093 
z
" clip-path="url(#pc9766ef8ae)" style="fill: #1f77b4; stroke: #000000; stroke-width: 0.6; stroke-linejoin: miter"/>
   </g>
   <g id="patch_8">
    <path d="M 213.102894 524.236875 
L 247.694392 524.236875 
L 247.694392 276.749468 
L 213.102894 276.749468 
z
" clip-path="url(#pc9766ef8ae)" style="fill: #1f77b4; stroke: #000000; stroke-width: 0.6; stroke-linejoin: miter"/>
   </g>
   <g id="patch_9">
    <path d="M 309.19039 524.236875 
L 343.781889 524.236875 
L 343.781889 281.5451 
L 309.19039 281.5451 
z
" clip-path="url(#pc9766ef8ae)" style="fill: #1f77b4; stroke: #000000; stroke-width: 0.6; stroke-linejoin: miter"/>
   </g>
   <g id="patch_10">
    <path d="M 405.277886 524.236875 
L 439.869385 524.236875 
L 439.869385 302.367161 
L 405.277886 302.367161 
z
" clip-path="url(#pc9766ef8ae)" style="fill: #1f77b4; stroke: #000000; stroke-width: 0.6; stroke-linejoin: miter"/>
   </g>
   <g id="patch_11">
    <path d="M 501.365382 524.236875 
L 535.956881 524.236875 
L 535.956881 177.188864 
L 501.365382 177.188864 
z
" clip-path="url(#pc9766ef8ae)" style="fill: #1f77b4; stroke: #000000; stroke-width: 0.6; stroke-linejoin: miter"/>
   </g>
   <g id="patch_12">
    <path d="M 597.452878 524.236875 
L 632.044377 524.236875 
L 632.044377 281.346989 
L 597.452878 281.346989 
z
" clip-path="url(#pc9766ef8ae)" style="fill: #1f77b4; stroke: #000000; stroke-width: 0.6; stroke-linejoin: miter"/>
   </g>
   <g id="patch_13">
    <path d="M 693.540374 524.236875 
L 728.131873 524.236875 
L 728.131873 307.073986 
L 693.540374 307.073986 
z
" clip-path="url(#pc9766ef8ae)" style="fill: #1f77b4; stroke: #000000; stroke-width: 0.6; stroke-linejoin: miter"/>
   </g>
   <g id="patch_14">
    <path d="M 789.627871 524.236875 
L 824.219369 524.236875 
L 824.219369 303.227913 
L 789.627871 303.227913 
z
" clip-path="url(#pc9766ef8ae)" style="fill: #1f77b4; stroke: #000000; stroke-width: 0.6; stroke-linejoin: miter"/>
   </g>
   <g id="patch_15">
    <path d="M 885.715367 524.236875 
L 920.306865 524.236875 
L 920.306865 460.586587 
L 885.715367 460.586587 
z
" clip-path="url(#pc9766ef8ae)" style="fill: #1f77b4; stroke: #000000; stroke-width: 0.6; stroke-linejoin: miter"/>
   </g>
   <g id="patch_16">
    <path d="M 981.802863 524.236875 
L 1016.394361 524.236875 
L 1016.394361 468.419906 
L 981.802863 468.419906 
z
" clip-path="url(#pc9766ef8ae)" style="fill: #1f77b4; stroke: #000000; stroke-width: 0.6; stroke-linejoin: miter"/>
   </g>
   <g id="patch_17">
    <path d="M 1077.890359 524.236875 
L 1112.481858 524.236875 
L 1112.481858 223.218737 
L 1077.890359 223.218737 
z
" clip-path="url(#pc9766ef8ae)" style="fill: #1f77b4; stroke: #000000; stroke-width: 0.6; stroke-linejoin: miter"/>
   </g>
   <g id="patch_18">
    <path d="M 1173.977855 524.236875 
L 1208.569354 524.236875 
L 1208.569354 406.887348 
L 1173.977855 406.887348 
z
" clip-path="url(#pc9766ef8ae)" style="fill: #1f77b4; stroke: #000000; stroke-width: 0.6; stroke-linejoin: miter"/>
   </g>
   <g id="patch_19">
    <path d="M 151.606896 524.236875 
L 186.198395 524.236875 
L 186.198395 284.619223 
L 151.606896 284.619223 
z
" clip-path="url(#pc9766ef8ae)" style="fill: #d62728; stroke: #000000; stroke-width: 0.6; stroke-linejoin: miter"/>
   </g>
   <g id="patch_20">
    <path d="M 247.694392 524.236875 
L 282.285891 524.236875 
L 282.285891 286.648144 
L 247.694392 286.648144 
z
" clip-path="url(#pc9766ef8ae)" style="fill: #d62728; stroke: #000000; stroke-width: 0.6; stroke-linejoin: miter"/>
   </g>
   <g id="patch_21">
    <path d="M 343.781889 524.236875 
L 378.373387 524.236875 
L 378.373387 295.050748 
L 343.781889 295.050748 
z
" clip-path="url(#pc9766ef8ae)" style="fill: #d62728; stroke: #000000; stroke-width: 0.6; stroke-linejoin: miter"/>
   </g>
   <g id="patch_22">
    <path d="M 439.869385 524.236875 
L 474.460883 524.236875 
L 474.460883 312.450285 
L 439.869385 312.450285 
z
" clip-path="url(#pc9766ef8ae)" style="fill: #d62728; stroke: #000000; stroke-width: 0.6; stroke-linejoin: miter"/>
   </g>
   <g id="patch_23">
    <path d="M 535.956881 524.236875 
L 570.548379 524.236875 
L 570.548379 186.021849 
L 535.956881 186.021849 
z
" clip-path="url(#pc9766ef8ae)" style="fill: #d62728; stroke: #000000; stroke-width: 0.6; stroke-linejoin: miter"/>
   </g>
   <g id="patch_24">
    <path d="M 632.044377 524.236875 
L 666.635876 524.236875 
L 666.635876 295.993479 
L 632.044377 295.993479 
z
" clip-path="url(#pc9766ef8ae)" style="fill: #d62728; stroke: #000000; stroke-width: 0.6; stroke-linejoin: miter"/>
   </g>
   <g id="patch_25">
    <path d="M 728.131873 524.236875 
L 762.723372 524.236875 
L 762.723372 322.64271 
L 728.131873 322.64271 
z
" clip-path="url(#pc9766ef8ae)" style="fill: #d62728; stroke: #000000; stroke-width: 0.6; stroke-linejoin: miter"/>
   </g>
   <g id="patch_26">
    <path d="M 824.219369 524.236875 
L 858.810868 524.236875 
L 858.810868 319.281669 
L 824.219369 319.281669 
z
" clip-path="url(#pc9766ef8ae)" style="fill: #d62728; stroke: #000000; stroke-width: 0.6; stroke-linejoin: miter"/>
   </g>
   <g id="patch_27">
    <path d="M 920.306865 524.236875 
L 954.898364 524.236875 
L 954.898364 438.361813 
L 920.306865 438.361813 
z
" clip-path="url(#pc9766ef8ae)" style="fill: #d62728; stroke: #000000; stroke-width: 0.6; stroke-linejoin: miter"/>
   </g>
   <g id="patch_28">
    <path d="M 1016.394361 524.236875 
L 1050.98586 524.236875 
L 1050.98586 451.432531 
L 1016.394361 451.432531 
z
" clip-path="url(#pc9766ef8ae)" style="fill: #d62728; stroke: #000000; stroke-width: 0.6; stroke-linejoin: miter"/>
   </g>
   <g id="patch_29">
    <path d="M 1112.481858 524.236875 
L 1147.073356 524.236875 
L 1147.073356 227.126288 
L 1112.481858 227.126288 
z
" clip-path="url(#pc9766ef8ae)" style="fill: #d62728; stroke: #000000; stroke-width: 0.6; stroke-linejoin: miter"/>
   </g>
   <g id="patch_30">
    <path d="M 1208.569354 524.236875 
L 1243.160852 524.236875 
L 1243.160852 416.109717 
L 1208.569354 416.109717 
z
" clip-path="url(#pc9766ef8ae)" style="fill: #d62728; stroke: #000000; stroke-width: 0.6; stroke-linejoin: miter"/>
   </g>
   <g id="text_21">
    <text style="font: 700 14px 'DejaVu Sans'; text-anchor: middle" x="487.913133" y="585.677887" transform="rotate(-0 487.913133 585.677887)">Fundus</text>
   </g>
   <g id="text_22">
    <text style="font: 700 14px 'DejaVu Sans'; text-anchor: middle" x="968.350613" y="585.677887" transform="rotate(-0 968.350613 585.677887)">Histopathology</text>
   </g>
   <g id="text_23">
    <text style="font: 700 14px 'DejaVu Sans'; text-anchor: middle" x="1160.525606" y="585.568512" transform="rotate(-0 1160.525606 585.568512)">X-ray</text>
   </g>
   <g id="text_24">
    <text style="font: 700 20px 'DejaVu Sans'; text-anchor: middle" x="680.088125" y="22.396875" transform="rotate(-0 680.088125 22.396875)">Multi‑Modality Prompt‑Tuning Performance: Classwise‑ECE Comparison</text>
   </g>
   <g id="LineCollection_1">
    <path d="M 134.311147 318.569524 
L 134.311147 223.534662 
" clip-path="url(#pc9766ef8ae)" style="fill: none; stroke: #000000; stroke-width: 1.25"/>
    <path d="M 230.398643 316.931225 
L 230.398643 236.567711 
" clip-path="url(#pc9766ef8ae)" style="fill: none; stroke: #000000; stroke-width: 1.25"/>
    <path d="M 326.486139 329.839115 
L 326.486139 233.251085 
" clip-path="url(#pc9766ef8ae)" style="fill: none; stroke: #000000; stroke-width: 1.25"/>
    <path d="M 422.573635 358.006863 
L 422.573635 246.727458 
" clip-path="url(#pc9766ef8ae)" style="fill: none; stroke: #000000; stroke-width: 1.25"/>
    <path d="M 518.661132 236.614486 
L 518.661132 117.763243 
" clip-path="url(#pc9766ef8ae)" style="fill: none; stroke: #000000; stroke-width: 1.25"/>
    <path d="M 614.748628 357.82801 
L 614.748628 204.865969 
" clip-path="url(#pc9766ef8ae)" style="fill: none; stroke: #000000; stroke-width: 1.25"/>
    <path d="M 710.836124 370.518104 
L 710.836124 243.629867 
" clip-path="url(#pc9766ef8ae)" style="fill: none; stroke: #000000; stroke-width: 1.25"/>
    <path d="M 806.92362 358.353232 
L 806.92362 248.102595 
" clip-path="url(#pc9766ef8ae)" style="fill: none; stroke: #000000; stroke-width: 1.25"/>
    <path d="M 903.011116 485.67188 
L 903.011116 435.501294 
" clip-path="url(#pc9766ef8ae)" style="fill: none; stroke: #000000; stroke-width: 1.25"/>
    <path d="M 999.098612 494.105353 
L 999.098612 442.73446 
" clip-path="url(#pc9766ef8ae)" style="fill: none; stroke: #000000; stroke-width: 1.25"/>
    <path d="M 1095.186108 264.799844 
L 1095.186108 181.63763 
" clip-path="url(#pc9766ef8ae)" style="fill: none; stroke: #000000; stroke-width: 1.25"/>
    <path d="M 1191.273604 439.599623 
L 1191.273604 374.175073 
" clip-path="url(#pc9766ef8ae)" style="fill: none; stroke: #000000; stroke-width: 1.25"/>
   </g>
   <g id="line2d_27">
    <defs>
     <path id="mc287cbd190" d="M 4 0 
L -4 -0 
" style="stroke: #000000; stroke-width: 1.25"/>
    </defs>
    <g clip-path="url(#pc9766ef8ae)">
     <use xlink:href="#mc287cbd190" x="134.311147" y="318.569524" style="stroke: #000000; stroke-width: 1.25"/>
     <use xlink:href="#mc287cbd190" x="230.398643" y="316.931225" style="stroke: #000000; stroke-width: 1.25"/>
     <use xlink:href="#mc287cbd190" x="326.486139" y="329.839115" style="stroke: #000000; stroke-width: 1.25"/>
     <use xlink:href="#mc287cbd190" x="422.573635" y="358.006863" style="stroke: #000000; stroke-width: 1.25"/>
     <use xlink:href="#mc287cbd190" x="518.661132" y="236.614486" style="stroke: #000000; stroke-width: 1.25"/>
     <use xlink:href="#mc287cbd190" x="614.748628" y="357.82801" style="stroke: #000000; stroke-width: 1.25"/>
     <use xlink:href="#mc287cbd190" x="710.836124" y="370.518104" style="stroke: #000000; stroke-width: 1.25"/>
     <use xlink:href="#mc287cbd190" x="806.92362" y="358.353232" style="stroke: #000000; stroke-width: 1.25"/>
     <use xlink:href="#mc287cbd190" x="903.011116" y="485.67188" style="stroke: #000000; stroke-width: 1.25"/>
     <use xlink:href="#mc287cbd190" x="999.098612" y="494.105353" style="stroke: #000000; stroke-width: 1.25"/>
     <use xlink:href="#mc287cbd190" x="1095.186108" y="264.799844" style="stroke: #000000; stroke-width: 1.25"/>
     <use xlink:href="#mc287cbd190" x="1191.273604" y="439.599623" style="stroke: #000000; stroke-width: 1.25"/>
    </g>
   </g>
   <g id="line2d_28">
    <g clip-path="url(#pc9766ef8ae)">
     <use xlink:href="#mc287cbd190" x="134.311147" y="223.534662" style="stroke: #000000; stroke-width: 1.25"/>
     <use xlink:href="#mc287cbd190" x="230.398643" y="236.567711" style="stroke: #000000; stroke-width: 1.25"/>
     <use xlink:href="#mc287cbd190" x="326.486139" y="233.251085" style="stroke: #000000; stroke-width: 1.25"/>
     <use xlink:href="#mc287cbd190" x="422.573635" y="246.727458" style="stroke: #000000; stroke-width: 1.25"/>
     <use xlink:href="#mc287cbd190" x="518.661132" y="117.763243" style="stroke: #000000; stroke-width: 1.25"/>
     <use xlink:href="#mc287cbd190" x="614.748628" y="204.865969" style="stroke: #000000; stroke-width: 1.25"/>
     <use xlink:href="#mc287cbd190" x="710.836124" y="243.629867" style="stroke: #000000; stroke-width: 1.25"/>
     <use xlink:href="#mc287cbd190" x="806.92362" y="248.102595" style="stroke: #000000; stroke-width: 1.25"/>
     <use xlink:href="#mc287cbd190" x="903.011116" y="435.501294" style="stroke: #000000; stroke-width: 1.25"/>
     <use xlink:href="#mc287cbd190" x="999.098612" y="442.73446" style="stroke: #000000; stroke-width: 1.25"/>
     <use xlink:href="#mc287cbd190" x="1095.186108" y="181.63763" style="stroke: #000000; stroke-width: 1.25"/>
     <use xlink:href="#mc287cbd190" x="1191.273604" y="374.175073" style="stroke: #000000; stroke-width: 1.25"/>
    </g>
   </g>
   <g id="LineCollection_2">
    <path d="M 168.902646 336.985922 
L 168.902646 232.252524 
" clip-path="url(#pc9766ef8ae)" style="fill: none; stroke: #000000; stroke-width: 1.25"/>
    <path d="M 264.990142 327.857162 
L 264.990142 245.439127 
" clip-path="url(#pc9766ef8ae)" style="fill: none; stroke: #000000; stroke-width: 1.25"/>
    <path d="M 361.077638 343.462382 
L 361.077638 246.639113 
" clip-path="url(#pc9766ef8ae)" style="fill: none; stroke: #000000; stroke-width: 1.25"/>
    <path d="M 457.165134 362.828034 
L 457.165134 262.072535 
" clip-path="url(#pc9766ef8ae)" style="fill: none; stroke: #000000; stroke-width: 1.25"/>
    <path d="M 553.25263 247.332736 
L 553.25263 124.710962 
" clip-path="url(#pc9766ef8ae)" style="fill: none; stroke: #000000; stroke-width: 1.25"/>
    <path d="M 649.340126 375.01824 
L 649.340126 216.968718 
" clip-path="url(#pc9766ef8ae)" style="fill: none; stroke: #000000; stroke-width: 1.25"/>
    <path d="M 745.427622 383.449858 
L 745.427622 261.835562 
" clip-path="url(#pc9766ef8ae)" style="fill: none; stroke: #000000; stroke-width: 1.25"/>
    <path d="M 841.515118 371.274261 
L 841.515118 267.289076 
" clip-path="url(#pc9766ef8ae)" style="fill: none; stroke: #000000; stroke-width: 1.25"/>
    <path d="M 937.602615 471.946182 
L 937.602615 404.777444 
" clip-path="url(#pc9766ef8ae)" style="fill: none; stroke: #000000; stroke-width: 1.25"/>
    <path d="M 1033.690111 488.226901 
L 1033.690111 414.638161 
" clip-path="url(#pc9766ef8ae)" style="fill: none; stroke: #000000; stroke-width: 1.25"/>
    <path d="M 1129.777607 263.490429 
L 1129.777607 190.762146 
" clip-path="url(#pc9766ef8ae)" style="fill: none; stroke: #000000; stroke-width: 1.25"/>
    <path d="M 1225.865103 466.54033 
L 1225.865103 365.679104 
" clip-path="url(#pc9766ef8ae)" style="fill: none; stroke: #000000; stroke-width: 1.25"/>
   </g>
   <g id="line2d_29">
    <g clip-path="url(#pc9766ef8ae)">
     <use xlink:href="#mc287cbd190" x="168.902646" y="336.985922" style="stroke: #000000; stroke-width: 1.25"/>
     <use xlink:href="#mc287cbd190" x="264.990142" y="327.857162" style="stroke: #000000; stroke-width: 1.25"/>
     <use xlink:href="#mc287cbd190" x="361.077638" y="343.462382" style="stroke: #000000; stroke-width: 1.25"/>
     <use xlink:href="#mc287cbd190" x="457.165134" y="362.828034" style="stroke: #000000; stroke-width: 1.25"/>
     <use xlink:href="#mc287cbd190" x="553.25263" y="247.332736" style="stroke: #000000; stroke-width: 1.25"/>
     <use xlink:href="#mc287cbd190" x="649.340126" y="375.01824" style="stroke: #000000; stroke-width: 1.25"/>
     <use xlink:href="#mc287cbd190" x="745.427622" y="383.449858" style="stroke: #000000; stroke-width: 1.25"/>
     <use xlink:href="#mc287cbd190" x="841.515118" y="371.274261" style="stroke: #000000; stroke-width: 1.25"/>
     <use xlink:href="#mc287cbd190" x="937.602615" y="471.946182" style="stroke: #000000; stroke-width: 1.25"/>
     <use xlink:href="#mc287cbd190" x="1033.690111" y="488.226901" style="stroke: #000000; stroke-width: 1.25"/>
     <use xlink:href="#mc287cbd190" x="1129.777607" y="263.490429" style="stroke: #000000; stroke-width: 1.25"/>
     <use xlink:href="#mc287cbd190" x="1225.865103" y="466.54033" style="stroke: #000000; stroke-width: 1.25"/>
    </g>
   </g>
   <g id="line2d_30">
    <g clip-path="url(#pc9766ef8ae)">
     <use xlink:href="#mc287cbd190" x="168.902646" y="232.252524" style="stroke: #000000; stroke-width: 1.25"/>
     <use xlink:href="#mc287cbd190" x="264.990142" y="245.439127" style="stroke: #000000; stroke-width: 1.25"/>
     <use xlink:href="#mc287cbd190" x="361.077638" y="246.639113" style="stroke: #000000; stroke-width: 1.25"/>
     <use xlink:href="#mc287cbd190" x="457.165134" y="262.072535" style="stroke: #000000; stroke-width: 1.25"/>
     <use xlink:href="#mc287cbd190" x="553.25263" y="124.710962" style="stroke: #000000; stroke-width: 1.25"/>
     <use xlink:href="#mc287cbd190" x="649.340126" y="216.968718" style="stroke: #000000; stroke-width: 1.25"/>
     <use xlink:href="#mc287cbd190" x="745.427622" y="261.835562" style="stroke: #000000; stroke-width: 1.25"/>
     <use xlink:href="#mc287cbd190" x="841.515118" y="267.289076" style="stroke: #000000; stroke-width: 1.25"/>
     <use xlink:href="#mc287cbd190" x="937.602615" y="404.777444" style="stroke: #000000; stroke-width: 1.25"/>
     <use xlink:href="#mc287cbd190" x="1033.690111" y="414.638161" style="stroke: #000000; stroke-width: 1.25"/>
     <use xlink:href="#mc287cbd190" x="1129.777607" y="190.762146" style="stroke: #000000; stroke-width: 1.25"/>
     <use xlink:href="#mc287cbd190" x="1225.865103" y="365.679104" style="stroke: #000000; stroke-width: 1.25"/>
    </g>
   </g>
   <g id="text_25">
    <g id="patch_31">
     <path d="M 115.924819 217.208137 
L 152.697475 217.208137 
L 152.697475 204.582199 
L 115.924819 204.582199 
z
" style="fill: #ffffff; opacity: 0.85"/>
    </g>
    <text style="fill: #1f77b4; font: 700 11px 'DejaVu Sans'; text-anchor: middle" x="134.311147" y="213.93048" transform="rotate(-0 134.311147 213.93048)">30.89</text>
   </g>
   <g id="text_26">
    <g id="patch_32">
     <path d="M 212.012315 230.241186 
L 248.784971 230.241186 
L 248.784971 217.615248 
L 212.012315 217.615248 
z
" style="fill: #ffffff; opacity: 0.85"/>
    </g>
    <text style="fill: #1f77b4; font: 700 11px 'DejaVu Sans'; text-anchor: middle" x="230.398643" y="226.963529" transform="rotate(-0 230.398643 226.963529)">30.19</text>
   </g>
   <g id="text_27">
    <g id="patch_33">
     <path d="M 308.099811 226.924559 
L 344.872467 226.924559 
L 344.872467 214.298622 
L 308.099811 214.298622 
z
" style="fill: #ffffff; opacity: 0.85"/>
    </g>
    <text style="fill: #1f77b4; font: 700 11px 'DejaVu Sans'; text-anchor: middle" x="326.486139" y="223.646903" transform="rotate(-0 326.486139 223.646903)">29.61</text>
   </g>
   <g id="text_28">
    <g id="patch_34">
     <path d="M 404.187307 240.400933 
L 440.959964 240.400933 
L 440.959964 227.774995 
L 404.187307 227.774995 
z
" style="fill: #ffffff; opacity: 0.85"/>
    </g>
    <text style="fill: #1f77b4; font: 700 11px 'DejaVu Sans'; text-anchor: middle" x="422.573635" y="237.123276" transform="rotate(-0 422.573635 237.123276)">27.06</text>
   </g>
   <g id="text_29">
    <g id="patch_35">
     <path d="M 500.274803 111.436718 
L 537.04746 111.436718 
L 537.04746 98.81078 
L 500.274803 98.81078 
z
" style="fill: #ffffff; opacity: 0.85"/>
    </g>
    <text style="fill: #1f77b4; font: 700 11px 'DejaVu Sans'; text-anchor: middle" x="518.661132" y="108.159062" transform="rotate(-0 518.661132 108.159062)">42.34</text>
   </g>
   <g id="text_30">
    <g id="patch_36">
     <path d="M 596.3623 198.539443 
L 633.134956 198.539443 
L 633.134956 185.913506 
L 596.3623 185.913506 
z
" style="fill: #ffffff; opacity: 0.85"/>
    </g>
    <text style="fill: #1f77b4; font: 700 11px 'DejaVu Sans'; text-anchor: middle" x="614.748628" y="195.261787" transform="rotate(-0 614.748628 195.261787)">29.63</text>
   </g>
   <g id="text_31">
    <g id="patch_37">
     <path d="M 692.449796 237.303342 
L 729.222452 237.303342 
L 729.222452 224.677405 
L 692.449796 224.677405 
z
" style="fill: #ffffff; opacity: 0.85"/>
    </g>
    <text style="fill: #1f77b4; font: 700 11px 'DejaVu Sans'; text-anchor: middle" x="710.836124" y="234.025686" transform="rotate(-0 710.836124 234.025686)">26.49</text>
   </g>
   <g id="text_32">
    <g id="patch_38">
     <path d="M 788.537292 241.776069 
L 825.309948 241.776069 
L 825.309948 229.150132 
L 788.537292 229.150132 
z
" style="fill: #ffffff; opacity: 0.85"/>
    </g>
    <text style="fill: #1f77b4; font: 700 11px 'DejaVu Sans'; text-anchor: middle" x="806.92362" y="238.498413" transform="rotate(-0 806.92362 238.498413)">26.96</text>
   </g>
   <g id="text_33">
    <g id="patch_39">
     <path d="M 888.451585 429.174768 
L 917.570647 429.174768 
L 917.570647 416.548831 
L 888.451585 416.548831 
z
" style="fill: #ffffff; opacity: 0.85"/>
    </g>
    <text style="fill: #1f77b4; font: 700 11px 'DejaVu Sans'; text-anchor: middle" x="903.011116" y="425.897112" transform="rotate(-0 903.011116 425.897112)">7.76</text>
   </g>
   <g id="text_34">
    <g id="patch_40">
     <path d="M 984.539081 436.407935 
L 1013.658143 436.407935 
L 1013.658143 423.781997 
L 984.539081 423.781997 
z
" style="fill: #ffffff; opacity: 0.85"/>
    </g>
    <text style="fill: #1f77b4; font: 700 11px 'DejaVu Sans'; text-anchor: middle" x="999.098612" y="433.130279" transform="rotate(-0 999.098612 433.130279)">6.81</text>
   </g>
   <g id="text_35">
    <g id="patch_41">
     <path d="M 1076.79978 175.311105 
L 1113.572436 175.311105 
L 1113.572436 162.685167 
L 1076.79978 162.685167 
z
" style="fill: #ffffff; opacity: 0.85"/>
    </g>
    <text style="fill: #1f77b4; font: 700 11px 'DejaVu Sans'; text-anchor: middle" x="1095.186108" y="172.033448" transform="rotate(-0 1095.186108 172.033448)">36.72</text>
   </g>
   <g id="text_36">
    <g id="patch_42">
     <path d="M 1172.887276 367.848547 
L 1209.659932 367.848547 
L 1209.659932 355.22261 
L 1172.887276 355.22261 
z
" style="fill: #ffffff; opacity: 0.85"/>
    </g>
    <text style="fill: #1f77b4; font: 700 11px 'DejaVu Sans'; text-anchor: middle" x="1191.273604" y="364.570891" transform="rotate(-0 1191.273604 364.570891)">14.31</text>
   </g>
   <g id="text_37">
    <g id="patch_43">
     <path d="M 150.516318 225.925999 
L 187.288974 225.925999 
L 187.288974 213.300061 
L 150.516318 213.300061 
z
" style="fill: #ffffff; opacity: 0.85"/>
    </g>
    <text style="fill: #d62728; font: 700 11px 'DejaVu Sans'; text-anchor: middle" x="168.902646" y="222.648343" transform="rotate(-0 168.902646 222.648343)">29.23</text>
   </g>
   <g id="text_38">
    <g id="patch_44">
     <path d="M 246.603814 239.112602 
L 283.37647 239.112602 
L 283.37647 226.486665 
L 246.603814 226.486665 
z
" style="fill: #ffffff; opacity: 0.85"/>
    </g>
    <text style="fill: #d62728; font: 700 11px 'DejaVu Sans'; text-anchor: middle" x="264.990142" y="235.834946" transform="rotate(-0 264.990142 235.834946)">28.98</text>
   </g>
   <g id="text_39">
    <g id="patch_45">
     <path d="M 342.69131 240.312588 
L 379.463966 240.312588 
L 379.463966 227.68665 
L 342.69131 227.68665 
z
" style="fill: #ffffff; opacity: 0.85"/>
    </g>
    <text style="fill: #d62728; font: 700 11px 'DejaVu Sans'; text-anchor: middle" x="361.077638" y="237.034931" transform="rotate(-0 361.077638 237.034931)">27.96</text>
   </g>
   <g id="text_40">
    <g id="patch_46">
     <path d="M 438.778806 255.74601 
L 475.551462 255.74601 
L 475.551462 243.120072 
L 438.778806 243.120072 
z
" style="fill: #ffffff; opacity: 0.85"/>
    </g>
    <text style="fill: #d62728; font: 700 11px 'DejaVu Sans'; text-anchor: middle" x="457.165134" y="252.468354" transform="rotate(-0 457.165134 252.468354)">25.84</text>
   </g>
   <g id="text_41">
    <g id="patch_47">
     <path d="M 534.866302 118.384437 
L 571.638958 118.384437 
L 571.638958 105.758499 
L 534.866302 105.758499 
z
" style="fill: #ffffff; opacity: 0.85"/>
    </g>
    <text style="fill: #d62728; font: 700 11px 'DejaVu Sans'; text-anchor: middle" x="553.25263" y="115.106781" transform="rotate(-0 553.25263 115.106781)">41.26</text>
   </g>
   <g id="text_42">
    <g id="patch_48">
     <path d="M 630.953798 210.642193 
L 667.726454 210.642193 
L 667.726454 198.016255 
L 630.953798 198.016255 
z
" style="fill: #ffffff; opacity: 0.85"/>
    </g>
    <text style="fill: #d62728; font: 700 11px 'DejaVu Sans'; text-anchor: middle" x="649.340126" y="207.364536" transform="rotate(-0 649.340126 207.364536)">27.84</text>
   </g>
   <g id="text_43">
    <g id="patch_49">
     <path d="M 727.041294 255.509037 
L 763.81395 255.509037 
L 763.81395 242.8831 
L 727.041294 242.8831 
z
" style="fill: #ffffff; opacity: 0.85"/>
    </g>
    <text style="fill: #d62728; font: 700 11px 'DejaVu Sans'; text-anchor: middle" x="745.427622" y="252.231381" transform="rotate(-0 745.427622 252.231381)">24.59</text>
   </g>
   <g id="text_44">
    <g id="patch_50">
     <path d="M 823.12879 260.962551 
L 859.901447 260.962551 
L 859.901447 248.336613 
L 823.12879 248.336613 
z
" style="fill: #ffffff; opacity: 0.85"/>
    </g>
    <text style="fill: #d62728; font: 700 11px 'DejaVu Sans'; text-anchor: middle" x="841.515118" y="257.684894" transform="rotate(-0 841.515118 257.684894)">25.00</text>
   </g>
   <g id="text_45">
    <g id="patch_51">
     <path d="M 919.216286 398.450919 
L 955.988943 398.450919 
L 955.988943 385.824982 
L 919.216286 385.824982 
z
" style="fill: #ffffff; opacity: 0.85"/>
    </g>
    <text style="fill: #d62728; font: 700 11px 'DejaVu Sans'; text-anchor: middle" x="937.602615" y="395.173263" transform="rotate(-0 937.602615 395.173263)">10.48</text>
   </g>
   <g id="text_46">
    <g id="patch_52">
     <path d="M 1019.130579 408.311636 
L 1048.249642 408.311636 
L 1048.249642 395.685699 
L 1019.130579 395.685699 
z
" style="fill: #ffffff; opacity: 0.85"/>
    </g>
    <text style="fill: #d62728; font: 700 11px 'DejaVu Sans'; text-anchor: middle" x="1033.690111" y="405.03398" transform="rotate(-0 1033.690111 405.03398)">8.88</text>
   </g>
   <g id="text_47">
    <g id="patch_53">
     <path d="M 1111.391279 184.435621 
L 1148.163935 184.435621 
L 1148.163935 171.809684 
L 1111.391279 171.809684 
z
" style="fill: #ffffff; opacity: 0.85"/>
    </g>
    <text style="fill: #d62728; font: 700 11px 'DejaVu Sans'; text-anchor: middle" x="1129.777607" y="181.157965" transform="rotate(-0 1129.777607 181.157965)">36.24</text>
   </g>
   <g id="text_48">
    <g id="patch_54">
     <path d="M 1207.478775 359.352579 
L 1244.251431 359.352579 
L 1244.251431 346.726641 
L 1207.478775 346.726641 
z
" style="fill: #ffffff; opacity: 0.85"/>
    </g>
    <text style="fill: #d62728; font: 700 11px 'DejaVu Sans'; text-anchor: middle" x="1225.865103" y="356.074922" transform="rotate(-0 1225.865103 356.074922)">13.19</text>
   </g>
   <g id="legend_1">
    <g id="patch_55">
     <path d="M 82.895725 76.98465 
L 363.22385 76.98465 
Q 366.02385 76.98465 366.02385 74.18465 
L 366.02385 55.035275 
Q 366.02385 52.235275 363.22385 52.235275 
L 82.895725 52.235275 
Q 80.095725 52.235275 80.095725 55.035275 
L 80.095725 74.18465 
Q 80.095725 76.98465 82.895725 76.98465 
z
" style="fill: #ffffff; opacity: 0.96; stroke: #d3d3d3; stroke-linejoin: miter"/>
    </g>
    <g id="patch_56">
     <path d="M 85.695725 68.473087 
L 113.695725 68.473087 
L 113.695725 58.673087 
L 85.695725 58.673087 
z
" style="fill: #1f77b4; stroke: #000000; stroke-width: 0.6; stroke-linejoin: miter"/>
    </g>
    <g id="text_49">
     <text style="font: 14px 'DejaVu Sans'; text-anchor: start" x="124.895725" y="68.473087" transform="rotate(-0 124.895725 68.473087)">Vanilla Method / CE</text>
    </g>
    <g id="patch_57">
     <path d="M 288.282287 68.473087 
L 316.282287 68.473087 
L 316.282287 58.673087 
L 288.282287 58.673087 
z
" style="fill: #d62728; stroke: #000000; stroke-width: 0.6; stroke-linejoin: miter"/>
    </g>
    <g id="text_50">
     <text style="font: 14px 'DejaVu Sans'; text-anchor: start" x="327.482287" y="68.473087" transform="rotate(-0 327.482287 68.473087)">Ours</text>
    </g>
   </g>
  </g>
 </g>
 <defs>
  <clipPath id="pc9766ef8ae">
   <rect x="60.708125" y="40.396875" width="1238.76" height="483.84"/>
  </clipPath>
 </defs>
</svg>
